<svg width="112" height="43" viewBox="0 0 112 43" fill="none" xmlns="http://www.w3.org/2000/svg">
<g filter="url(#filter0_dd_1707_13521)">
<g clipPath="url(#clip0_1707_13521)">
<path d="M3 5.5H19V21.5H3V5.5Z" fill="url(#paint0_linear_1707_13521)"/>
<path d="M19 21.5H35V37.5H19V21.5Z" fill="url(#paint1_linear_1707_13521)"/>
<path d="M3 21.5H19V37.5H3V21.5Z" fill="url(#paint2_linear_1707_13521)"/>
</g>
</g>
<path d="M43.632 19V8.2H46.36V17.16H50.744V19H43.632ZM55.4733 19.104C55.0999 19.104 54.7319 19.0827 54.3693 19.04C54.0119 18.9973 53.6759 18.9173 53.3613 18.8C53.0466 18.6773 52.7693 18.5067 52.5293 18.288C52.2893 18.0693 52.0999 17.7867 51.9613 17.44C51.8279 17.0933 51.7613 16.6693 51.7613 16.168C51.7613 15.6827 51.8279 15.2747 51.9613 14.944C52.0999 14.608 52.2866 14.3333 52.5213 14.12C52.7559 13.9067 53.0279 13.7413 53.3372 13.624C53.6466 13.5067 53.9773 13.4267 54.3293 13.384C54.6813 13.336 55.0386 13.312 55.4013 13.312H58.3933V12.944C58.3933 12.512 58.3079 12.1707 58.1373 11.92C57.9719 11.6693 57.7426 11.4933 57.4493 11.392C57.1613 11.2853 56.8359 11.232 56.4733 11.232C56.1426 11.232 55.8413 11.2827 55.5693 11.384C55.2973 11.4853 55.0679 11.6507 54.8813 11.88C54.6999 12.1093 54.5719 12.416 54.4973 12.8L51.8653 12.064C51.9613 11.5893 52.1373 11.1867 52.3933 10.856C52.6546 10.52 52.9853 10.248 53.3853 10.04C53.7906 9.82667 54.2519 9.672 54.7693 9.576C55.2919 9.47467 55.8573 9.424 56.4653 9.424C57.4199 9.424 58.2439 9.53867 58.9373 9.768C59.6306 9.99733 60.1639 10.3787 60.5373 10.912C60.9106 11.4453 61.0973 12.1707 61.0973 13.088V19H58.8573L58.6253 17.912C58.5613 18.056 58.4413 18.2 58.2653 18.344C58.0893 18.4827 57.8626 18.6107 57.5853 18.728C57.3133 18.84 56.9986 18.9307 56.6413 19C56.2893 19.0693 55.8999 19.104 55.4733 19.104ZM56.0813 17.416C56.3426 17.416 56.6013 17.392 56.8573 17.344C57.1186 17.296 57.3559 17.2267 57.5693 17.136C57.7879 17.0453 57.9693 16.9387 58.1133 16.816C58.2573 16.688 58.3506 16.5493 58.3933 16.4L58.4573 14.8H56.0333C55.8199 14.8 55.6199 14.816 55.4333 14.848C55.2466 14.8747 55.0813 14.9333 54.9373 15.024C54.7986 15.1147 54.6893 15.2453 54.6093 15.416C54.5293 15.5867 54.4893 15.8107 54.4893 16.088C54.4893 16.3707 54.5319 16.6 54.6173 16.776C54.7079 16.9467 54.8279 17.08 54.9773 17.176C55.1319 17.2667 55.3026 17.3307 55.4893 17.368C55.6813 17.4 55.8786 17.416 56.0813 17.416ZM69.4019 19L68.7859 17.488V9.52H71.4659V19H69.4019ZM65.2099 9.512V14.536C65.2099 15.5867 65.3325 16.2987 65.5779 16.672C65.8285 17.0453 66.2205 17.232 66.7539 17.232C67.3085 17.232 67.7859 17.016 68.1859 16.584C68.5912 16.1467 68.7939 15.5627 68.7939 14.832L70.1059 15.384C70.1059 16.2213 69.7245 17.048 68.9619 17.864C68.2045 18.6747 67.1379 19.08 65.7619 19.08C64.5245 19.08 63.6765 18.68 63.2179 17.88C62.7592 17.08 62.5299 16.008 62.5299 14.664V9.512H65.2099ZM73.063 19V9.52H75.143L75.751 11.12V19H73.063ZM79.247 19V13.976C79.247 12.9253 79.119 12.2133 78.863 11.84C78.607 11.4667 78.2123 11.28 77.679 11.28C77.119 11.28 76.6417 11.5093 76.247 11.968C75.8577 12.4213 75.663 13.0107 75.663 13.736L74.359 13.128C74.359 12.2907 74.759 11.4667 75.559 10.656C76.359 9.84 77.4043 9.432 78.695 9.432C79.9163 9.432 80.7617 9.848 81.231 10.68C81.7003 11.5067 81.935 12.592 81.935 13.936V19H79.247ZM87.9401 19.096C86.1695 19.096 84.9321 18.6773 84.2281 17.84C83.5295 16.9973 83.1801 15.8107 83.1801 14.28C83.1801 12.712 83.5295 11.512 84.2281 10.68C84.9321 9.848 86.1695 9.432 87.9401 9.432C89.5135 9.432 90.6041 9.77333 91.2121 10.456C91.8255 11.1387 92.1828 11.856 92.2841 12.608L89.8921 13.44C89.8495 12.7147 89.6575 12.176 89.3161 11.824C88.9801 11.4667 88.5215 11.288 87.9401 11.288C87.3641 11.288 86.8841 11.488 86.5001 11.888C86.1161 12.288 85.9241 13.0853 85.9241 14.28C85.9241 15.4267 86.1161 16.208 86.5001 16.624C86.8841 17.04 87.3641 17.248 87.9401 17.248C88.5215 17.248 88.9801 17.0613 89.3161 16.688C89.6575 16.3147 89.8495 15.792 89.8921 15.12L92.2841 15.984C92.1828 16.6827 91.8255 17.376 91.2121 18.064C90.6041 18.752 89.5135 19.096 87.9401 19.096ZM93.6255 19V6.44H96.3215V19H93.6255ZM99.8575 19V13.976C99.8575 12.9253 99.7242 12.2133 99.4575 11.84C99.1962 11.4667 98.7988 11.28 98.2655 11.28C97.7055 11.28 97.2335 11.5093 96.8495 11.968C96.4655 12.4213 96.2735 13.0107 96.2735 13.736L94.9695 13.128C94.9695 12.2907 95.3642 11.4667 96.1535 10.656C96.9482 9.84 97.9908 9.432 99.2815 9.432C100.503 9.432 101.351 9.832 101.826 10.632C102.3 11.432 102.538 12.504 102.538 13.848V19H99.8575ZM46.76 35V26.048H43.544V24.2H52.696V26.048H49.488V35H46.76ZM57.6546 35.08C55.916 35.08 54.676 34.6613 53.9346 33.824C53.1933 32.9813 52.8226 31.7787 52.8226 30.216C52.8226 28.6587 53.1933 27.4693 53.9346 26.648C54.676 25.8213 55.916 25.408 57.6546 25.408C59.388 25.408 60.6226 25.8213 61.3586 26.648C62.1 27.4693 62.4706 28.6587 62.4706 30.216C62.4706 31.7787 62.1 32.9813 61.3586 33.824C60.6226 34.6613 59.388 35.08 57.6546 35.08ZM57.6546 33.256C58.2733 33.256 58.7826 33.0587 59.1826 32.664C59.5826 32.2693 59.7826 31.4587 59.7826 30.232C59.7826 29.0107 59.5826 28.2053 59.1826 27.816C58.7826 27.4267 58.2733 27.232 57.6546 27.232C57.0306 27.232 56.5186 27.4267 56.1186 27.816C55.7186 28.2053 55.5186 29.0107 55.5186 30.232C55.5186 31.4587 55.7186 32.2693 56.1186 32.664C56.5186 33.0587 57.0306 33.256 57.6546 33.256ZM70.3738 35L70.1978 33.584V22.44H72.8778V35H70.3738ZM67.1978 35.064C65.9124 35.064 64.9791 34.6347 64.3978 33.776C63.8164 32.9173 63.5258 31.7387 63.5258 30.24C63.5258 28.736 63.8164 27.56 64.3978 26.712C64.9791 25.864 65.9124 25.44 67.1978 25.44C68.3338 25.44 69.3151 25.704 70.1418 26.232C70.9738 26.7547 71.3898 27.336 71.3898 27.976L70.1978 29.136C70.1978 28.6187 69.9924 28.1813 69.5818 27.824C69.1764 27.4613 68.6964 27.28 68.1418 27.28C67.5391 27.28 67.0724 27.48 66.7418 27.88C66.4111 28.2747 66.2458 29.064 66.2458 30.248C66.2458 31.4427 66.4111 32.2373 66.7418 32.632C67.0724 33.0267 67.5391 33.224 68.1418 33.224C68.6964 33.224 69.1764 33.0453 69.5818 32.688C69.9924 32.3307 70.1978 31.888 70.1978 31.36L71.3898 32.536C71.3898 33.176 70.9738 33.7573 70.1418 34.28C69.3151 34.8027 68.3338 35.064 67.1978 35.064ZM77.942 35.104C77.5687 35.104 77.2007 35.0827 76.838 35.04C76.4807 34.9973 76.1447 34.9173 75.83 34.8C75.5153 34.6773 75.238 34.5067 74.998 34.288C74.758 34.0693 74.5687 33.7867 74.43 33.44C74.2967 33.0933 74.23 32.6693 74.23 32.168C74.23 31.6827 74.2967 31.2747 74.43 30.944C74.5687 30.608 74.7553 30.3333 74.99 30.12C75.2247 29.9067 75.4967 29.7413 75.806 29.624C76.1153 29.5067 76.446 29.4267 76.798 29.384C77.15 29.336 77.5073 29.312 77.87 29.312H80.862V28.944C80.862 28.512 80.7767 28.1707 80.606 27.92C80.4407 27.6693 80.2113 27.4933 79.918 27.392C79.63 27.2853 79.3047 27.232 78.942 27.232C78.6113 27.232 78.31 27.2827 78.038 27.384C77.766 27.4853 77.5367 27.6507 77.35 27.88C77.1687 28.1093 77.0407 28.416 76.966 28.8L74.334 28.064C74.43 27.5893 74.606 27.1867 74.862 26.856C75.1233 26.52 75.454 26.248 75.854 26.04C76.2593 25.8267 76.7207 25.672 77.238 25.576C77.7607 25.4747 78.326 25.424 78.934 25.424C79.8887 25.424 80.7127 25.5387 81.406 25.768C82.0993 25.9973 82.6327 26.3787 83.006 26.912C83.3793 27.4453 83.566 28.1707 83.566 29.088V35H81.326L81.094 33.912C81.03 34.056 80.91 34.2 80.734 34.344C80.558 34.4827 80.3313 34.6107 80.054 34.728C79.782 34.84 79.4673 34.9307 79.11 35C78.758 35.0693 78.3687 35.104 77.942 35.104ZM78.55 33.416C78.8113 33.416 79.07 33.392 79.326 33.344C79.5873 33.296 79.8247 33.2267 80.038 33.136C80.2567 33.0453 80.438 32.9387 80.582 32.816C80.726 32.688 80.8193 32.5493 80.862 32.4L80.926 30.8H78.502C78.2887 30.8 78.0887 30.816 77.902 30.848C77.7153 30.8747 77.55 30.9333 77.406 31.024C77.2673 31.1147 77.158 31.2453 77.078 31.416C76.998 31.5867 76.958 31.8107 76.958 32.088C76.958 32.3707 77.0007 32.6 77.086 32.776C77.1767 32.9467 77.2967 33.08 77.446 33.176C77.6007 33.2667 77.7713 33.3307 77.958 33.368C78.15 33.4 78.3473 33.416 78.55 33.416ZM87.0286 35L84.3326 25.52H87.1486L89.3566 33.936H88.7966L90.9726 25.52H93.7886L91.1326 35H87.0286ZM85.0286 38.728V36.912C86.1273 36.9067 86.9486 36.784 87.4926 36.544C88.0366 36.3093 88.4206 35.792 88.6446 34.992L91.1326 35C90.6953 36.5307 89.9753 37.5333 88.9726 38.008C87.9753 38.488 86.6606 38.728 85.0286 38.728Z" fill="url(#paint3_linear_1707_13521)"/>
<defs>
<filter id="filter0_dd_1707_13521" x="0" y="3.5" width="38" height="38" filterUnits="userSpaceOnUse" color-interpolation-filters="sRGB">
<feFlood flood-opacity="0" result="BackgroundImageFix"/>
<feColorMatrix in="SourceAlpha" type="matrix" values="0 0 0 0 0 0 0 0 0 0 0 0 0 0 0 0 0 0 127 0" result="hardAlpha"/>
<feOffset dy="1"/>
<feGaussianBlur stdDeviation="1"/>
<feColorMatrix type="matrix" values="0 0 0 0 0.0627451 0 0 0 0 0.0941176 0 0 0 0 0.156863 0 0 0 0.06 0"/>
<feBlend mode="normal" in2="BackgroundImageFix" result="effect1_dropShadow_1707_13521"/>
<feColorMatrix in="SourceAlpha" type="matrix" values="0 0 0 0 0 0 0 0 0 0 0 0 0 0 0 0 0 0 127 0" result="hardAlpha"/>
<feOffset dy="1"/>
<feGaussianBlur stdDeviation="1.5"/>
<feColorMatrix type="matrix" values="0 0 0 0 0.0627451 0 0 0 0 0.0941176 0 0 0 0 0.156863 0 0 0 0.1 0"/>
<feBlend mode="normal" in2="effect1_dropShadow_1707_13521" result="effect2_dropShadow_1707_13521"/>
<feBlend mode="normal" in="SourceGraphic" in2="effect2_dropShadow_1707_13521" result="shape"/>
</filter>
<linearGradient id="paint0_linear_1707_13521" x1="19" y1="5.5" x2="19" y2="37.5" gradientUnits="userSpaceOnUse">
<stop stop-color="white"/>
<stop offset="1" stop-color="#6DBBB6"/>
</linearGradient>
<linearGradient id="paint1_linear_1707_13521" x1="19" y1="5.5" x2="19" y2="37.5" gradientUnits="userSpaceOnUse">
<stop stop-color="white"/>
<stop offset="1" stop-color="#6DBBB6"/>
</linearGradient>
<linearGradient id="paint2_linear_1707_13521" x1="19" y1="5.5" x2="19" y2="37.5" gradientUnits="userSpaceOnUse">
<stop stop-color="white"/>
<stop offset="1" stop-color="#6DBBB6"/>
</linearGradient>
<linearGradient id="paint3_linear_1707_13521" x1="73.5" y1="8" x2="73.5" y2="35" gradientUnits="userSpaceOnUse">
<stop stop-color="white"/>
<stop offset="1" stop-color="#6DBBB6"/>
</linearGradient>
<clipPath id="clip0_1707_13521">
<rect width="32" height="32" fill="white" transform="matrix(-1 0 0 1 35 5.5)"/>
</clipPath>
</defs>
</svg>
